<?xml version='1.0' encoding='ascii'?>
<svg xmlns="http://www.w3.org/2000/svg" height="1080" version="1.1" width="1920">
    <g id="View Layer_LineSet" inkscape:groupmode="lineset" inkscape:label="View Layer_LineSet" xmlns:inkscape="http://www.inkscape.org/namespaces/inkscape">
        <g id="strokes" inkscape:groupmode="layer" inkscape:label="strokes" xmlns:inkscape="http://www.inkscape.org/namespaces/inkscape">
            <path d=" M 1062.692, 23.733 1052.740, 22.753 1042.788, 21.773 1032.836, 20.792 1022.885, 19.812 1012.933, 18.832 1002.981, 17.852 993.029, 16.872 983.077, 15.892 973.125, 14.911 963.173, 13.931 960.000, 13.619 950.048, 14.599 940.096, 15.579 930.144, 16.559 920.193, 17.539 910.241, 18.520 900.289, 19.500 890.337, 20.480 880.385, 21.460 870.433, 22.440 860.482, 23.420 857.309, 23.733 847.740, 26.636 838.170, 29.538 828.601, 32.441 819.031, 35.344 809.462, 38.247 799.892, 41.150 790.323, 44.053 780.754, 46.955 771.184, 49.858 761.615, 52.761 758.563, 53.687 749.744, 58.401 740.925, 63.115 732.106, 67.829 723.286, 72.543 714.467, 77.257 705.648, 81.971 696.829, 86.684 688.010, 91.398 679.190, 96.112 670.371, 100.826 667.559, 102.330 659.829, 108.673 652.099, 115.017 644.368, 121.361 636.638, 127.705 628.908, 134.049 621.178, 140.393 613.448, 146.737 605.718, 153.081 597.988, 159.425 590.258, 165.769 587.793, 167.792 581.449, 175.522 575.105, 183.252 568.761, 190.982 562.417, 198.712 556.073, 206.442 549.729, 214.172 543.385, 221.902 537.041, 229.633 530.697, 237.363 524.353, 245.093 522.330, 247.558 517.616, 256.377 512.902, 265.196 508.188, 274.015 503.474, 282.834 498.760, 291.654 494.046, 300.473 489.332, 309.292 484.618, 318.111 479.905, 326.931 475.191, 335.750 473.687, 338.562 470.784, 348.131 467.882, 357.701 464.979, 367.270 462.076, 376.840 459.173, 386.409 456.270, 395.978 453.367, 405.548 450.464, 415.117 447.562, 424.687 444.659, 434.256 443.733, 437.308 442.753, 447.259 441.773, 457.211 440.793, 467.163 439.812, 477.115 438.832, 487.067 437.852, 497.019 436.872, 506.970 435.892, 516.922 434.911, 526.874 433.931, 536.826 433.619, 540.000 434.599, 549.951 435.579, 559.903 436.559, 569.855 437.539, 579.807 438.520, 589.759 439.500, 599.711 440.480, 609.662 441.460, 619.614 442.440, 629.566 443.420, 639.518 443.733, 642.691 446.636, 652.261 449.539, 661.830 452.441, 671.400 455.344, 680.969 458.247, 690.538 461.150, 700.108 464.053, 709.677 466.956, 719.247 469.858, 728.816 472.761, 738.386 473.687, 741.437 478.401, 750.256 483.115, 759.075 487.829, 767.895 492.543, 776.714 497.257, 785.533 501.971, 794.352 506.685, 803.172 511.399, 811.991 516.113, 820.810 520.827, 829.629 522.330, 832.441 528.674, 840.172 535.018, 847.902 541.362, 855.632 547.705, 863.362 554.049, 871.092 560.393, 878.822 566.737, 886.552 573.081, 894.282 579.425, 902.012 585.769, 909.743 587.792, 912.208 595.522, 918.552 603.252, 924.895 610.982, 931.239 618.712, 937.583 626.442, 943.927 634.173, 950.271 641.903, 956.615 649.633, 962.959 657.363, 969.303 665.093, 975.647 667.558, 977.670 676.377, 982.384 685.196, 987.098 694.016, 991.812 702.835, 996.526 711.654, 1001.240 720.473, 1005.954 729.292, 1010.668 738.112, 1015.382 746.931, 1020.096 755.750, 1024.810 758.562, 1026.313 768.132, 1029.216 777.701, 1032.119 787.271, 1035.021 796.840, 1037.924 806.409, 1040.827 815.979, 1043.730 825.548, 1046.633 835.118, 1049.536 844.687, 1052.438 854.256, 1055.341 857.308, 1056.267 867.260, 1057.247 877.212, 1058.227 887.163, 1059.208 897.115, 1060.188 907.067, 1061.168 917.019, 1062.148 926.971, 1063.128 936.923, 1064.108 946.875, 1065.089 956.826, 1066.069 960.000, 1066.381 969.952, 1065.401 979.904, 1064.421 989.855, 1063.441 999.807, 1062.461 1009.759, 1061.480 1019.711, 1060.500 1029.663, 1059.520 1039.615, 1058.540 1049.566, 1057.560 1059.518, 1056.580 1062.692, 1056.267 1072.261, 1053.364 1081.831, 1050.461 1091.400, 1047.559 1100.969, 1044.656 1110.539, 1041.753 1120.108, 1038.850 1129.678, 1035.947 1139.247, 1033.044 1148.816, 1030.141 1158.386, 1027.239 1161.437, 1026.313 1170.257, 1021.599 1179.076, 1016.885 1187.895, 1012.171 1196.714, 1007.457 1205.533, 1002.743 1214.353, 998.029 1223.172, 993.315 1231.991, 988.601 1240.810, 983.887 1249.630, 979.173 1252.442, 977.670 1260.172, 971.326 1267.902, 964.982 1275.632, 958.638 1283.362, 952.294 1291.092, 945.950 1298.822, 939.606 1306.552, 933.263 1314.283, 926.919 1322.013, 920.575 1329.743, 914.231 1332.208, 912.208 1338.552, 904.478 1344.896, 896.748 1351.240, 889.017 1357.583, 881.287 1363.927, 873.557 1370.271, 865.827 1376.615, 858.097 1382.959, 850.367 1389.303, 842.637 1395.647, 834.907 1397.670, 832.442 1402.384, 823.623 1407.098, 814.803 1411.812, 805.984 1416.526, 797.165 1421.240, 788.346 1425.954, 779.526 1430.668, 770.707 1435.382, 761.888 1440.096, 753.069 1444.810, 744.250 1446.313, 741.437 1449.216, 731.868 1452.119, 722.299 1455.021, 712.729 1457.924, 703.160 1460.827, 693.590 1463.730, 684.021 1466.633, 674.452 1469.536, 664.882 1472.439, 655.313 1475.341, 645.743 1476.267, 642.692 1477.247, 632.740 1478.227, 622.788 1479.208, 612.836 1480.188, 602.884 1481.168, 592.933 1482.148, 582.981 1483.128, 573.029 1484.108, 563.077 1485.089, 553.125 1486.069, 543.173 1486.381, 540.000 1485.401, 530.048 1484.421, 520.096 1483.441, 510.144 1482.461, 500.193 1481.480, 490.241 1480.500, 480.289 1479.520, 470.337 1478.540, 460.385 1477.560, 450.433 1476.580, 440.482 1476.267, 437.308 1473.364, 427.739 1470.461, 418.169 1467.558, 408.600 1464.656, 399.030 1461.753, 389.461 1458.850, 379.892 1455.947, 370.322 1453.044, 360.753 1450.141, 351.183 1447.239, 341.614 1446.313, 338.563 1441.599, 329.743 1436.885, 320.924 1432.171, 312.105 1427.457, 303.286 1422.743, 294.467 1418.029, 285.647 1413.315, 276.828 1408.601, 268.009 1403.887, 259.190 1399.173, 250.370 1397.670, 247.558 1391.326, 239.828 1384.982, 232.098 1378.638, 224.368 1372.294, 216.638 1365.950, 208.908 1359.606, 201.178 1353.263, 193.448 1346.919, 185.717 1340.575, 177.987 1334.231, 170.257 1332.208, 167.792 1324.478, 161.448 1316.748, 155.104 1309.017, 148.760 1301.287, 142.416 1293.557, 136.073 1285.827, 129.729 1278.097, 123.385 1270.367, 117.041 1262.637, 110.697 1254.907, 104.353 1252.442, 102.330 1243.623, 97.616 1234.803, 92.902 1225.984, 88.188 1217.165, 83.474 1208.346, 78.760 1199.526, 74.046 1190.707, 69.332 1181.888, 64.618 1173.069, 59.904 1164.250, 55.190 1161.437, 53.687 1151.868, 50.784 1142.299, 47.881 1132.729, 44.979 1123.160, 42.076 1113.590, 39.173 1104.021, 36.270 1094.452, 33.367 1084.882, 30.464 1075.313, 27.561 1065.743, 24.659 1062.692, 23.733 " fill="none" stroke="rgb(0, 0, 0)" stroke-linecap="butt" stroke-linejoin="round" stroke-opacity="1.0" stroke-width="3.0" />
            <path d=" M 1252.439, 977.665 1243.619, 982.379 1234.800, 987.093 1225.981, 991.807 1217.162, 996.521 1208.343, 1001.235 1199.523, 1005.949 1190.704, 1010.663 1181.885, 1015.377 1173.066, 1020.091 1164.246, 1024.805 1161.435, 1026.308 1151.866, 1029.211 1142.296, 1032.113 1132.727, 1035.016 1123.158, 1037.919 1113.588, 1040.822 1104.019, 1043.725 1094.449, 1046.628 1084.880, 1049.531 1075.311, 1052.433 1065.741, 1055.336 1062.691, 1056.262 1052.739, 1057.242 1042.787, 1058.222 1032.835, 1059.202 1022.883, 1060.182 1012.931, 1061.162 1002.980, 1062.143 993.028, 1063.123 983.076, 1064.103 973.124, 1065.083 963.172, 1066.063 960.000, 1066.376 950.048, 1065.396 940.096, 1064.415 930.144, 1063.435 920.192, 1062.455 910.241, 1061.475 900.289, 1060.495 890.337, 1059.514 880.385, 1058.534 870.433, 1057.554 860.481, 1056.574 857.309, 1056.261 847.740, 1053.359 838.170, 1050.456 828.601, 1047.553 819.031, 1044.650 809.462, 1041.747 799.893, 1038.844 790.323, 1035.942 780.754, 1033.039 771.184, 1030.136 761.615, 1027.233 758.565, 1026.308 749.745, 1021.594 740.926, 1016.880 732.107, 1012.166 723.288, 1007.452 714.468, 1002.738 705.649, 998.024 696.830, 993.310 688.011, 988.596 679.192, 983.882 670.372, 979.168 667.561, 977.665 659.831, 971.321 652.101, 964.977 644.371, 958.633 636.641, 952.289 628.911, 945.946 621.180, 939.602 613.450, 933.258 605.720, 926.914 597.990, 920.570 590.260, 914.226 587.796, 912.204 581.452, 904.473 575.108, 896.743 568.764, 889.013 562.420, 881.283 556.076, 873.553 549.732, 865.823 543.388, 858.093 537.045, 850.363 530.701, 842.633 524.357, 834.902 522.334, 832.438 517.620, 823.619 512.906, 814.800 508.193, 805.981 503.479, 797.161 498.765, 788.342 494.051, 779.523 489.337, 770.704 484.623, 761.885 479.909, 753.065 475.195, 744.246 473.692, 741.435 470.789, 731.865 467.886, 722.296 464.984, 712.727 462.081, 703.157 459.178, 693.588 456.275, 684.018 453.372, 674.449 450.469, 664.880 447.567, 655.310 444.664, 645.741 443.738, 642.690 442.758, 632.738 441.778, 622.787 440.798, 612.835 439.818, 602.883 438.838, 592.931 437.857, 582.979 436.877, 573.027 435.897, 563.076 434.917, 553.124 433.937, 543.172 433.624, 540.000 434.605, 530.048 435.585, 520.096 436.565, 510.144 437.545, 500.192 438.525, 490.240 439.505, 480.288 440.486, 470.337 441.466, 460.385 442.446, 450.433 443.426, 440.481 443.739, 437.309 446.641, 427.739 449.544, 418.170 452.447, 408.600 455.350, 399.031 458.253, 389.462 461.156, 379.892 464.059, 370.323 466.961, 360.753 469.864, 351.184 472.767, 341.615 473.693, 338.564 478.406, 329.745 483.120, 320.926 487.834, 312.107 492.548, 303.287 497.262, 294.468 501.976, 285.649 506.690, 276.830 511.404, 268.011 516.118, 259.191 520.832, 250.372 522.335, 247.561 528.679, 239.831 535.023, 232.101 541.367, 224.371 547.711, 216.640 554.055, 208.910 560.399, 201.180 566.743, 193.450 573.087, 185.720 579.430, 177.990 585.774, 170.260 587.797, 167.796 595.527, 161.452 603.257, 155.108 610.987, 148.764 618.717, 142.420 626.447, 136.076 634.177, 129.732 641.907, 123.388 649.638, 117.044 657.368, 110.700 665.098, 104.357 667.562, 102.334 676.381, 97.620 685.200, 92.906 694.020, 88.192 702.839, 83.478 711.658, 78.764 720.477, 74.050 729.296, 69.337 738.116, 64.623 746.935, 59.909 755.754, 55.195 758.565, 53.692 768.135, 50.789 777.704, 47.886 787.274, 44.984 796.843, 42.081 806.412, 39.178 815.982, 36.275 825.551, 33.372 835.121, 30.469 844.690, 27.567 854.260, 24.664 857.310, 23.738 867.262, 22.758 877.214, 21.778 887.166, 20.798 897.117, 19.818 907.069, 18.838 917.021, 17.857 926.973, 16.877 936.925, 15.897 946.877, 14.917 956.828, 13.937 960.000, 13.624 969.952, 14.604 979.904, 15.585 989.856, 16.565 999.807, 17.545 1009.759, 18.525 1019.711, 19.505 1029.663, 20.485 1039.615, 21.466 1049.567, 22.446 1059.518, 23.426 1062.691, 23.739 1072.260, 26.641 1081.830, 29.544 1091.399, 32.447 1100.968, 35.350 1110.538, 38.253 1120.107, 41.156 1129.677, 44.058 1139.246, 46.961 1148.815, 49.864 1158.385, 52.767 1161.435, 53.692 1170.255, 58.406 1179.074, 63.120 1187.893, 67.834 1196.712, 72.548 1205.531, 77.262 1214.351, 81.976 1223.170, 86.690 1231.989, 91.404 1240.808, 96.118 1249.627, 100.832 1252.439, 102.335 1260.169, 108.679 1267.899, 115.023 1275.629, 121.366 1283.359, 127.710 1291.089, 134.054 1298.819, 140.398 1306.549, 146.742 1314.280, 153.086 1322.010, 159.430 1329.740, 165.774 1332.204, 167.796 1338.548, 175.526 1344.892, 183.256 1351.236, 190.987 1357.580, 198.717 1363.923, 206.447 1370.267, 214.177 1376.611, 221.907 1382.955, 229.637 1389.299, 237.367 1395.643, 245.097 1397.665, 247.561 1402.379, 256.381 1407.093, 265.200 1411.807, 274.019 1416.521, 282.838 1421.235, 291.657 1425.949, 300.477 1430.663, 309.296 1435.377, 318.115 1440.091, 326.934 1444.805, 335.753 1446.308, 338.565 1449.211, 348.134 1452.113, 357.704 1455.016, 367.273 1457.919, 376.842 1460.822, 386.412 1463.725, 395.981 1466.628, 405.551 1469.531, 415.120 1472.433, 424.689 1475.336, 434.259 1476.261, 437.309 1477.242, 447.261 1478.222, 457.213 1479.202, 467.165 1480.182, 477.117 1481.162, 487.068 1482.143, 497.020 1483.123, 506.972 1484.103, 516.924 1485.083, 526.876 1486.063, 536.828 1486.376, 540.000 1485.396, 549.952 1484.415, 559.904 1483.435, 569.855 1482.455, 579.807 1481.475, 589.759 1480.495, 599.711 1479.515, 609.663 1478.534, 619.615 1477.554, 629.567 1476.574, 639.518 1476.261, 642.691 1473.359, 652.260 1470.456, 661.830 1467.553, 671.399 1464.650, 680.968 1461.747, 690.538 1458.844, 700.107 1455.942, 709.677 1453.039, 719.246 1450.136, 728.815 1447.233, 738.385 1446.308, 741.435 1441.594, 750.254 1436.880, 759.074 1432.166, 767.893 1427.452, 776.712 1422.738, 785.531 1418.024, 794.350 1413.310, 803.170 1408.596, 811.989 1403.882, 820.808 1399.168, 829.627 1397.665, 832.439 1391.321, 840.169 1384.978, 847.899 1378.634, 855.629 1372.290, 863.359 1365.946, 871.089 1359.602, 878.819 1353.258, 886.549 1346.914, 894.279 1340.570, 902.010 1334.226, 909.740 1332.204, 912.204 1324.474, 918.548 1316.744, 924.892 1309.013, 931.236 1301.283, 937.580 1293.553, 943.923 1285.823, 950.267 1278.093, 956.611 1270.363, 962.955 1262.633, 969.299 1254.903, 975.643 1252.439, 977.665 " fill="none" stroke="rgb(0, 0, 0)" stroke-linecap="butt" stroke-linejoin="round" stroke-opacity="1.0" stroke-width="3.0" />
            <path d=" M 503.938, 295.753 506.938, 297.485 515.598, 302.485 524.258, 307.485 532.918, 312.485 537.924, 315.375 533.373, 323.258 524.713, 318.258 516.053, 313.258 507.392, 308.258 502.645, 305.517 499.387, 303.636 503.938, 295.753 " fill="none" stroke="rgb(0, 0, 0)" stroke-linecap="butt" stroke-linejoin="round" stroke-opacity="1.0" stroke-width="3.0" />
            <path d=" M 1397.634, 535.012 1407.634, 535.012 1417.634, 535.012 1427.634, 535.012 1437.634, 535.012 1447.634, 535.012 1457.634, 535.012 1467.634, 535.012 1475.881, 535.012 1478.774, 535.012 1478.774, 542.952 1476.082, 542.952 1466.082, 542.952 1456.082, 542.952 1446.082, 542.952 1436.082, 542.952 1426.082, 542.952 1416.082, 542.952 1406.082, 542.952 1397.634, 542.952 1397.634, 535.012 " fill="none" stroke="rgb(0, 0, 0)" stroke-linecap="butt" stroke-linejoin="round" stroke-opacity="1.0" stroke-width="3.0" />
            <path d=" M 952.510, 73.210 952.510, 63.210 952.510, 53.210 952.510, 43.210 952.510, 33.210 952.510, 24.365 952.510, 23.588 960.450, 23.588 960.450, 23.672 960.450, 33.672 960.450, 43.672 960.450, 53.672 960.450, 61.083 " fill="none" stroke="rgb(0, 0, 0)" stroke-linecap="butt" stroke-linejoin="round" stroke-opacity="1.0" stroke-width="3.0" />
            <path d=" M 961.131, 1057.998 953.191, 1057.998 953.191, 1055.702 953.191, 1045.702 953.191, 1035.702 953.191, 1025.702 953.191, 1015.702 953.191, 1005.702 953.191, 995.702 953.191, 985.702 953.191, 976.858 961.131, 976.858 961.131, 986.858 961.131, 996.858 961.131, 1006.858 961.131, 1016.858 961.131, 1026.858 961.131, 1036.858 961.131, 1046.858 961.131, 1056.261 961.131, 1057.998 " fill="none" stroke="rgb(0, 0, 0)" stroke-linecap="butt" stroke-linejoin="round" stroke-opacity="1.0" stroke-width="3.0" />
            <path d=" M 438.282, 535.012 444.119, 535.012 454.119, 535.012 464.119, 535.012 474.119, 535.012 484.119, 535.012 494.119, 535.012 504.119, 535.012 514.119, 535.012 519.423, 535.012 519.423, 542.952 509.423, 542.952 499.423, 542.952 489.423, 542.952 479.423, 542.952 469.423, 542.952 459.423, 542.952 449.423, 542.952 443.918, 542.952 438.282, 542.952 438.282, 535.012 " fill="none" stroke="rgb(0, 0, 0)" stroke-linecap="butt" stroke-linejoin="round" stroke-opacity="1.0" stroke-width="3.0" />
            <path d=" M 725.631, 79.116 727.161, 81.766 732.161, 90.426 737.161, 99.086 742.161, 107.747 745.253, 113.102 737.370, 117.654 732.370, 108.993 727.370, 100.333 722.370, 91.673 719.129, 86.059 717.748, 83.667 725.631, 79.116 " fill="none" stroke="rgb(0, 0, 0)" stroke-linecap="butt" stroke-linejoin="round" stroke-opacity="1.0" stroke-width="3.0" />
            <path d=" M 497.614, 765.500 497.789, 765.399 506.449, 760.399 515.109, 755.399 523.770, 750.399 531.601, 745.878 536.152, 753.760 527.492, 758.760 518.831, 763.760 510.171, 768.760 502.166, 773.382 500.693, 770.831 497.614, 765.500 " fill="none" stroke="rgb(0, 0, 0)" stroke-linecap="butt" stroke-linejoin="round" stroke-opacity="1.0" stroke-width="3.0" />
            <path d=" M 1183.351, 965.461 1188.351, 974.122 1193.351, 982.782 1198.351, 991.442 1200.048, 994.381 1202.973, 999.448 1195.090, 1003.999 1192.016, 998.674 1187.016, 990.014 1182.016, 981.354 1177.016, 972.693 1175.468, 970.013 1183.351, 965.461 " fill="none" stroke="rgb(0, 0, 0)" stroke-linecap="butt" stroke-linejoin="round" stroke-opacity="1.0" stroke-width="3.0" />
            <path d=" M 711.340, 991.299 712.011, 990.136 717.011, 981.476 722.011, 972.816 727.011, 964.156 730.962, 957.312 738.845, 961.863 733.845, 970.524 728.845, 979.184 723.845, 987.844 720.043, 994.429 719.222, 995.850 711.340, 991.299 " fill="none" stroke="rgb(0, 0, 0)" stroke-linecap="butt" stroke-linejoin="round" stroke-opacity="1.0" stroke-width="3.0" />
            <path d=" M 1379.471, 759.383 1388.131, 764.383 1396.791, 769.383 1405.451, 774.383 1413.457, 779.005 1408.906, 786.888 1400.246, 781.888 1391.585, 776.888 1382.925, 771.888 1374.920, 767.266 1379.471, 759.383 " fill="none" stroke="rgb(0, 0, 0)" stroke-linecap="butt" stroke-linejoin="round" stroke-opacity="1.0" stroke-width="3.0" />
            <path d=" M 1172.161, 114.251 1177.161, 105.591 1182.161, 96.931 1187.161, 88.270 1191.370, 80.981 1191.784, 80.265 1199.666, 84.816 1199.402, 85.274 1194.402, 93.934 1189.402, 102.594 1184.402, 111.255 1180.044, 118.802 1172.161, 114.251 " fill="none" stroke="rgb(0, 0, 0)" stroke-linecap="butt" stroke-linejoin="round" stroke-opacity="1.0" stroke-width="3.0" />
            <path d=" M 1372.284, 312.451 1380.945, 307.451 1389.605, 302.451 1398.265, 297.451 1406.271, 292.829 1410.822, 300.712 1402.162, 305.712 1393.501, 310.712 1384.841, 315.712 1376.836, 320.334 1372.284, 312.451 " fill="none" stroke="rgb(0, 0, 0)" stroke-linecap="butt" stroke-linejoin="round" stroke-opacity="1.0" stroke-width="3.0" />
            <path d=" M 966.897, 546.756 968.015, 545.386 968.906, 543.710 969.455, 541.891 969.640, 540.000 969.455, 538.109 968.923, 536.346 968.906, 536.290 968.015, 534.614 966.816, 533.145 965.356, 531.939 963.689, 531.044 961.881, 530.492 960.000, 530.306 958.119, 530.492 956.311, 531.044 954.644, 531.939 953.184, 533.145 951.985, 534.614 951.094, 536.290 951.069, 536.374 950.545, 538.109 950.360, 540.000 950.545, 541.891 951.094, 543.710 951.985, 545.386 953.184, 546.855 954.644, 548.061 956.311, 548.956 958.119, 549.508 960.000, 549.694 961.881, 549.508 962.410, 549.347 " fill="none" stroke="rgb(0, 0, 0)" stroke-linecap="butt" stroke-linejoin="round" stroke-opacity="1.0" stroke-width="3.0" />
            <path d=" M 968.923, 536.346 970.695, 526.504 972.468, 516.663 974.240, 506.821 976.013, 496.979 977.785, 487.138 979.557, 477.296 981.330, 467.454 983.102, 457.613 984.875, 447.771 986.647, 437.929 988.420, 428.088 990.192, 418.246 991.965, 408.404 993.737, 398.563 995.510, 388.721 995.851, 386.822 994.986, 376.860 994.120, 366.897 993.254, 356.935 992.388, 346.973 991.522, 337.010 990.656, 327.048 989.791, 317.085 988.925, 307.123 988.059, 297.160 987.193, 287.198 986.327, 277.235 985.461, 267.273 984.595, 257.311 983.730, 247.348 982.864, 237.386 981.998, 227.423 981.132, 217.461 980.266, 207.498 979.400, 197.536 978.534, 187.573 977.669, 177.611 976.803, 167.649 975.937, 157.686 975.071, 147.724 974.205, 137.761 973.339, 127.799 972.474, 117.836 971.608, 107.874 970.742, 97.911 969.876, 87.949 968.784, 75.388 963.750, 66.747 960.450, 61.083 960.086, 60.459 954.978, 69.056 952.510, 73.210 951.216, 75.388 950.271, 85.343 949.325, 95.298 948.380, 105.254 947.435, 115.209 946.490, 125.164 945.545, 135.119 944.600, 145.075 943.654, 155.030 942.709, 164.985 941.764, 174.940 940.819, 184.895 939.874, 194.851 938.929, 204.806 937.984, 214.761 937.038, 224.716 936.093, 234.672 935.148, 244.627 934.203, 254.582 933.258, 264.537 932.313, 274.493 931.367, 284.448 930.422, 294.403 929.477, 304.358 928.532, 314.314 927.587, 324.269 926.642, 334.224 925.697, 344.179 924.751, 354.134 923.806, 364.090 922.861, 374.045 921.916, 384.000 921.587, 387.467 923.529, 397.276 925.471, 407.086 927.413, 416.895 929.356, 426.705 931.298, 436.515 933.240, 446.324 935.182, 456.134 937.124, 465.943 939.067, 475.753 941.009, 485.562 942.951, 495.372 944.893, 505.182 946.835, 514.991 948.778, 524.801 950.720, 534.610 951.069, 536.374 " fill="none" stroke="rgb(0, 0, 0)" stroke-linecap="butt" stroke-linejoin="round" stroke-opacity="1.0" stroke-width="3.0" />
            <path d=" M 990.503, 560.372 983.134, 553.612 975.765, 546.852 972.276, 543.651 968.463, 545.852 966.897, 546.756 965.688, 547.454 964.650, 548.054 963.396, 548.778 962.410, 549.347 960.837, 550.255 957.024, 552.456 959.448, 562.158 961.872, 571.860 962.997, 576.365 965.421, 586.067 967.845, 595.769 968.972, 600.279 971.396, 609.980 973.819, 619.682 974.947, 624.196 977.371, 633.898 979.795, 643.600 980.924, 648.118 987.062, 656.013 993.200, 663.907 999.338, 671.802 1005.476, 679.696 1011.359, 687.264 1017.497, 695.159 1023.635, 703.053 1029.773, 710.948 1035.911, 718.842 1041.790, 726.403 1047.928, 734.298 1054.066, 742.192 1060.204, 750.087 1066.342, 757.982 1072.215, 765.535 1078.353, 773.430 1084.490, 781.325 1090.629, 789.219 1096.766, 797.114 1102.634, 804.661 1105.699, 805.609 1108.763, 806.558 1111.828, 807.507 1114.893, 808.456 1115.641, 805.305 1116.389, 802.155 1117.138, 799.005 1117.886, 795.855 1114.234, 786.546 1110.582, 777.236 1106.930, 767.927 1103.278, 758.618 1099.714, 749.531 1096.062, 740.221 1092.410, 730.912 1088.758, 721.603 1085.106, 712.293 1081.540, 703.204 1077.889, 693.895 1074.237, 684.585 1070.585, 675.276 1066.933, 665.967 1063.366, 656.874 1059.714, 647.565 1056.062, 638.256 1052.410, 628.946 1048.759, 619.637 1045.191, 610.542 1037.822, 603.782 1030.453, 597.022 1026.960, 593.818 1019.591, 587.058 1012.223, 580.297 1008.731, 577.094 1001.362, 570.334 993.993, 563.574 990.503, 560.372 " fill="none" stroke="rgb(0, 0, 0)" stroke-linecap="butt" stroke-linejoin="round" stroke-opacity="1.0" stroke-width="3.0" />
        </g>
    </g>
</svg>
